<?xml version="1.0" standalone="no"?>
<!DOCTYPE svg PUBLIC "-//W3C//DTD SVG 20010904//EN"
 "http://www.w3.org/TR/2001/REC-SVG-20010904/DTD/svg10.dtd">
<svg version="1.0" xmlns="http://www.w3.org/2000/svg"
 width="1080.000000pt" height="1080.000000pt" viewBox="0 0 1080.000000 1080.000000"
 preserveAspectRatio="xMidYMid meet">
<metadata>
Created by potrace 1.11, written by Peter Selinger 2001-2013
</metadata>
<g transform="translate(0.000000,1080.000000) scale(0.100000,-0.100000)"
fill="#000000" stroke="none">
<path d="M0 5400 l0 -5400 5400 0 5400 0 0 5400 0 5400 -5400 0 -5400 0 0
-5400z m5600 4125 c62 -7 240 -64 240 -77 0 -4 7 -8 15 -8 19 0 139 -59 143
-71 2 -5 9 -9 16 -9 7 0 21 -9 31 -20 10 -11 24 -20 31 -20 8 0 19 -9 26 -20
7 -11 17 -20 23 -20 5 0 18 -9 30 -20 117 -114 166 -165 200 -205 22 -27 52
-61 67 -77 15 -15 29 -36 32 -46 4 -10 14 -27 24 -38 21 -23 62 -84 93 -141
13 -22 35 -61 49 -85 14 -23 32 -59 40 -78 7 -19 22 -47 32 -62 10 -14 18 -32
18 -40 0 -7 7 -26 16 -43 13 -25 45 -118 83 -240 6 -16 13 -52 17 -78 4 -29
13 -51 23 -56 9 -5 88 -14 176 -20 88 -7 228 -19 310 -27 83 -8 195 -19 250
-24 112 -11 458 -54 550 -69 33 -6 83 -13 110 -16 64 -8 76 -10 205 -29 58 -9
142 -21 187 -27 117 -16 120 -19 105 -110 -62 -382 -77 -477 -133 -859 -51
-351 -63 -425 -89 -590 -19 -122 -57 -362 -95 -605 -25 -164 -74 -458 -95
-570 -11 -60 -43 -243 -71 -405 -28 -162 -59 -335 -69 -384 -11 -49 -17 -93
-14 -98 3 -4 0 -8 -5 -8 -6 0 -11 -9 -11 -21 0 -23 -54 -305 -69 -359 -6 -19
-20 -80 -32 -135 -37 -171 -93 -342 -150 -457 -47 -96 -93 -161 -218 -307 -80
-95 -194 -225 -226 -257 -16 -17 -68 -73 -115 -124 -224 -247 -531 -553 -771
-771 -129 -117 -259 -229 -288 -247 -14 -9 -37 -27 -51 -40 -14 -13 -37 -30
-52 -38 -16 -8 -28 -19 -28 -24 0 -6 -5 -10 -11 -10 -6 0 -29 -15 -52 -33 -23
-19 -50 -37 -59 -40 -10 -4 -18 -11 -18 -17 0 -5 -8 -10 -19 -10 -10 0 -29 -8
-42 -18 -59 -45 -119 -70 -284 -122 -54 -16 -94 -21 -178 -21 -59 0 -115 5
-125 10 -9 4 -38 12 -65 15 -75 11 -304 115 -358 162 -8 8 -20 14 -26 14 -5 0
-18 9 -28 20 -10 11 -22 20 -27 20 -5 0 -23 13 -41 30 -18 16 -35 30 -39 30
-4 0 -15 8 -25 18 -10 10 -60 51 -111 92 -50 40 -92 77 -92 82 0 4 -4 8 -10 8
-5 0 -20 10 -33 22 -14 13 -46 41 -72 63 -117 99 -469 446 -702 691 -138 146
-145 153 -235 255 -31 35 -67 76 -80 90 -12 14 -50 56 -83 94 -33 38 -65 73
-70 79 -32 35 -155 204 -155 214 0 7 -4 12 -8 12 -13 0 -49 78 -92 200 -64
177 -97 311 -176 710 -13 69 -38 193 -54 275 -30 154 -92 499 -130 730 -11 72
-28 166 -36 210 -8 44 -28 166 -44 270 -17 105 -41 260 -55 345 -33 202 -68
426 -104 675 -17 110 -39 259 -51 330 -11 72 -27 177 -35 235 -18 125 -38 254
-71 448 -13 79 -24 160 -24 182 0 43 -7 41 165 60 55 7 141 18 190 26 50 9
117 17 150 20 33 2 85 9 115 14 90 17 502 62 810 90 69 6 143 13 165 15 22 2
112 9 200 15 181 13 205 21 205 61 0 41 53 238 88 325 20 49 74 164 109 229 8
17 30 57 47 90 35 67 63 109 89 133 9 9 17 22 17 28 0 7 16 33 35 58 19 26 35
50 35 54 0 4 9 13 20 20 11 7 20 19 20 27 0 8 4 15 9 15 5 0 49 39 98 88 110
107 127 121 183 158 25 16 51 35 58 41 7 7 25 16 40 20 15 3 32 13 38 22 6 8
33 22 60 32 27 9 74 26 105 37 31 12 87 26 125 32 38 6 71 13 73 16 3 3 17 3
31 0 14 -3 50 -8 80 -11z"/>
<path d="M5469 9269 c-55 -8 -179 -46 -189 -58 -3 -3 -25 -17 -50 -30 -105
-56 -191 -121 -285 -216 -121 -123 -128 -131 -207 -245 -170 -245 -264 -443
-313 -661 -14 -63 -32 -125 -38 -139 -16 -32 -35 -35 -342 -55 -266 -18 -307
-21 -445 -35 -52 -5 -189 -19 -305 -31 -218 -21 -352 -36 -565 -63 -264 -33
-291 -38 -297 -52 -4 -12 32 -323 57 -484 6 -36 26 -173 45 -305 44 -305 119
-803 139 -920 9 -49 31 -187 50 -305 73 -444 88 -536 151 -895 49 -278 143
-759 189 -960 89 -396 151 -525 358 -751 89 -97 523 -531 649 -650 153 -143
244 -227 266 -243 10 -8 38 -33 63 -55 44 -39 145 -128 220 -191 19 -17 53
-44 75 -60 22 -16 45 -34 50 -40 6 -6 37 -31 70 -56 33 -24 62 -47 63 -51 2
-5 10 -8 18 -8 8 0 14 -4 14 -8 0 -20 289 -202 321 -202 8 0 23 -6 34 -13 53
-34 131 -52 230 -51 91 0 109 4 200 38 110 41 260 128 375 218 41 33 91 69
110 82 19 13 44 33 54 45 11 11 23 21 28 21 4 0 16 8 26 17 10 10 29 27 43 38
161 135 237 201 369 319 222 200 257 233 535 511 408 408 494 511 565 673 33
77 107 319 124 407 3 17 26 127 50 245 48 231 99 497 140 730 14 80 28 159 31
175 3 17 10 55 15 85 27 170 81 493 90 540 10 58 34 213 45 290 3 25 10 65 16
90 5 25 21 122 35 215 14 94 31 206 39 250 8 44 16 103 20 130 3 28 17 124 31
215 42 283 71 490 89 625 9 72 21 165 26 208 6 44 8 82 5 85 -6 6 -30 9 -271
42 -82 11 -179 24 -215 29 -92 14 -310 39 -480 56 -80 8 -190 19 -245 25 -107
10 -274 24 -499 40 -157 11 -170 17 -181 83 -20 119 -71 271 -138 407 -29 58
-55 107 -59 108 -5 2 -8 9 -8 15 0 38 -255 375 -355 467 -20 19 -51 49 -68 66
-95 93 -275 198 -392 229 -83 22 -112 24 -176 14z m-23 -105 c25 -17 54 -72
54 -103 0 -9 5 -23 10 -31 9 -13 11 -13 20 0 5 8 10 25 10 37 0 46 31 90 72
104 33 11 46 10 91 -4 55 -17 183 -95 233 -142 16 -15 48 -40 71 -56 23 -16
44 -37 47 -47 4 -11 18 -25 31 -32 14 -7 25 -18 25 -23 0 -5 15 -27 33 -47 71
-83 191 -266 202 -308 4 -15 12 -33 18 -41 6 -7 17 -27 23 -45 7 -17 21 -56
33 -86 44 -115 18 -158 -52 -88 -23 24 -46 43 -50 43 -5 0 -14 7 -21 16 -14
20 -135 76 -187 88 -39 9 -69 -1 -69 -23 0 -13 45 -56 59 -56 5 0 24 -12 42
-27 48 -39 259 -254 259 -264 0 -4 6 -14 13 -21 36 -37 131 -197 163 -273 50
-124 65 -183 71 -285 13 -229 -49 -375 -223 -529 -109 -97 -200 -190 -263
-271 -36 -47 -69 -86 -73 -88 -5 -2 -8 -8 -8 -14 0 -5 -11 -24 -24 -41 -95
-128 -209 -432 -231 -617 -15 -126 -25 -278 -23 -359 2 -107 -5 -116 58 89 17
57 38 116 45 130 20 37 65 150 65 161 0 6 -5 7 -12 3 -7 -4 -8 -3 -4 5 4 6 11
9 16 6 4 -3 27 30 50 72 23 43 45 80 49 83 4 3 19 26 34 52 15 26 33 53 40 60
7 7 28 33 47 58 43 56 181 200 190 200 4 0 10 -11 12 -25 3 -13 2 -22 -3 -19
-4 2 -13 -12 -18 -33 -16 -54 -26 -173 -15 -173 5 0 18 21 30 48 25 56 102
175 141 218 46 50 159 134 220 163 187 90 389 69 553 -58 53 -41 114 -106 132
-141 7 -14 16 -27 19 -30 10 -8 58 -117 65 -147 3 -16 13 -48 22 -73 15 -46
24 -321 10 -335 -3 -4 -17 0 -30 8 -36 24 -189 75 -244 82 -27 3 -65 8 -84 11
l-35 6 24 -26 c14 -14 29 -26 35 -26 6 0 25 -14 43 -30 18 -17 36 -30 40 -30
8 0 109 -103 143 -146 62 -77 129 -213 143 -291 7 -38 9 -37 -40 -18 -65 25
-206 57 -255 58 -26 0 -45 4 -43 8 3 3 -20 -3 -51 -14 l-55 -20 72 -19 c64
-16 89 -27 179 -79 44 -25 119 -107 145 -159 20 -40 25 -64 25 -127 0 -102
-22 -233 -60 -363 -40 -135 -61 -183 -117 -273 l-24 -39 -62 7 c-149 18 -273
69 -371 155 -33 29 -33 29 16 -70 40 -80 81 -131 138 -170 19 -13 37 -27 40
-30 5 -5 31 -16 125 -50 28 -10 50 -22 50 -27 0 -19 -40 -72 -64 -85 -14 -7
-29 -17 -32 -21 -3 -4 -37 -10 -75 -14 -72 -5 -209 20 -284 54 -151 67 -375
198 -393 229 -4 8 -16 14 -25 14 -11 0 -13 -3 -6 -8 6 -4 23 -31 38 -60 16
-31 63 -89 116 -142 l90 -90 -78 6 c-152 11 -344 52 -502 109 -115 41 -331
145 -485 234 -22 13 -58 33 -80 45 l-40 21 30 2 c83 7 206 27 211 34 3 5 14 9
25 9 10 0 19 5 19 10 0 6 -25 10 -56 10 -62 0 -247 24 -306 40 -21 6 -57 15
-80 21 -145 38 -249 95 -291 158 -41 62 -37 148 6 113 18 -15 138 -44 159 -39
10 3 16 1 13 -3 -3 -4 12 -6 34 -3 21 3 48 0 60 -7 13 -6 25 -9 28 -7 3 3 -21
18 -53 32 -32 15 -70 35 -85 46 -15 10 -31 19 -36 19 -4 0 -1 -5 7 -10 8 -5
11 -10 5 -10 -5 0 -17 5 -25 10 -10 6 -11 10 -2 10 6 0 12 5 12 11 0 6 -7 8
-17 5 -10 -4 -14 -4 -10 0 3 4 -5 20 -18 36 -53 63 -14 108 95 108 58 0 274
-42 313 -60 21 -11 21 -11 2 4 -11 8 -26 20 -33 26 -22 19 -155 86 -219 111
-35 13 -63 27 -63 31 0 17 176 12 315 -9 236 -35 669 -131 799 -176 36 -12 41
-19 64 -82 23 -65 68 -146 85 -153 4 -2 7 -9 7 -15 1 -22 95 -105 161 -141 75
-41 95 -46 53 -14 -57 45 -82 82 -135 203 -13 30 -30 117 -24 123 3 3 13 -2
22 -10 48 -40 177 -81 373 -118 124 -23 203 -53 263 -101 20 -16 37 -28 37
-26 0 24 -32 80 -64 115 -53 56 -150 102 -301 142 -66 17 -126 37 -133 44 -22
22 5 53 73 86 75 37 157 50 309 50 98 0 117 2 107 13 -17 21 -75 35 -211 51
-69 8 -134 18 -145 21 -112 38 -138 98 -115 276 17 136 41 218 100 342 16 34
37 73 47 86 l17 24 -29 -16 c-69 -36 -166 -167 -199 -267 -28 -87 -29 -88 -37
-40 -13 79 -10 294 6 376 16 82 52 201 66 220 5 6 6 14 2 17 -3 4 -1 7 5 7 7
0 12 5 12 10 0 18 -17 11 -50 -20 -18 -16 -37 -27 -43 -23 -6 4 -7 1 -3 -6 5
-7 -3 -28 -16 -49 -46 -68 -55 -87 -76 -147 -40 -114 -54 -199 -59 -352 -6
-171 11 -316 53 -437 13 -38 22 -71 20 -73 -2 -2 -115 19 -252 46 -231 46
-528 102 -616 116 l-38 6 0 102 c0 56 9 201 20 322 43 476 115 745 249 930 39
54 183 227 216 260 90 90 210 245 258 335 63 118 70 198 25 304 -86 201 -270
376 -523 496 -114 55 -116 55 -198 75 -134 32 -222 30 -372 -10 -110 -29 -282
-108 -327 -150 -13 -12 -37 -29 -51 -37 -41 -21 -189 -171 -233 -236 -21 -31
-42 -58 -46 -60 -5 -2 -8 -11 -8 -21 0 -9 -4 -21 -8 -27 -20 -22 -37 -104 -35
-167 1 -57 8 -80 43 -150 50 -101 152 -232 309 -396 29 -31 79 -87 110 -126
31 -38 58 -72 61 -75 37 -36 107 -178 144 -290 61 -188 110 -542 120 -880 l5
-165 -89 0 c-69 0 -94 4 -109 17 -42 36 -42 36 -296 69 -211 27 -282 26 -329
-6 -20 -14 -38 -25 -40 -25 -2 0 -6 55 -10 123 -11 187 -36 323 -75 412 -39
87 -67 142 -85 164 -33 41 -139 142 -144 136 -2 -2 12 -37 32 -76 20 -40 46
-104 57 -143 25 -87 35 -285 20 -371 -6 -33 -16 -96 -22 -140 -7 -44 -15 -83
-19 -88 -3 -4 -19 25 -34 65 -28 71 -83 170 -98 176 -4 2 -8 9 -8 16 0 27
-130 146 -159 146 -7 0 0 -17 14 -37 14 -21 25 -43 25 -50 0 -7 3 -13 8 -13
15 0 83 -207 102 -314 5 -33 10 -85 10 -116 l0 -57 -72 -6 c-102 -8 -200 -50
-263 -112 -25 -25 -65 -80 -65 -88 0 -3 21 3 47 15 59 26 157 34 220 19 48
-12 133 -59 133 -73 0 -5 -31 -8 -70 -8 -137 0 -258 -43 -348 -125 -50 -45
-102 -126 -102 -160 0 -21 7 -19 43 15 70 66 220 115 328 107 37 -2 71 -7 77
-11 7 -4 -3 -26 -28 -59 -48 -63 -78 -139 -87 -218 -6 -65 -1 -73 21 -31 17
31 73 91 102 109 123 78 216 113 356 133 109 16 229 9 338 -21 107 -29 126
-44 63 -53 -38 -5 -156 -57 -173 -76 -3 -3 -18 -16 -34 -28 -34 -26 -34 -26
46 -6 75 20 254 15 333 -9 105 -32 155 -52 155 -65 0 -28 -32 -42 -141 -61
-63 -11 -134 -27 -159 -34 l-45 -15 35 -6 c19 -3 116 -15 215 -27 102 -12 217
-32 265 -46 47 -14 104 -30 128 -36 23 -6 42 -14 42 -19 0 -4 7 -8 15 -8 8 0
31 -7 52 -16 44 -19 63 -27 118 -49 69 -27 175 -80 175 -87 0 -11 -134 -17
-511 -23 -381 -5 -523 -14 -647 -41 -78 -17 -144 -44 -107 -44 120 -1 402 -47
428 -70 9 -8 -34 -15 -143 -25 -36 -4 -126 -16 -200 -28 -178 -28 -404 -30
-505 -3 -220 57 -396 210 -477 412 -24 62 -24 62 -42 40 -15 -18 -17 -35 -13
-116 2 -56 11 -113 21 -140 26 -68 29 -80 20 -80 -18 0 -108 97 -145 155 -21
33 -42 65 -46 70 -29 37 -85 189 -114 310 -29 119 -32 338 -5 434 53 194 152
297 366 378 20 8 13 11 -50 21 -93 15 -197 4 -292 -32 -38 -14 -69 -22 -69
-18 -4 26 5 142 18 227 26 171 133 454 219 580 13 20 24 39 24 43 0 4 14 24
31 45 53 65 16 40 -69 -45 -96 -97 -116 -121 -144 -166 -32 -51 -40 -26 -23
69 28 156 74 273 160 402 25 38 42 74 38 80 -3 7 -2 9 2 4 11 -10 86 63 78 76
-3 6 -1 7 4 4 6 -4 30 8 54 26 164 123 331 149 479 75 72 -36 182 -137 225
-207 41 -66 95 -178 109 -225 l13 -41 8 59 c4 32 5 94 1 137 -4 44 -4 79 -2
79 3 0 33 -16 68 -37 178 -103 328 -272 429 -483 51 -107 127 -321 159 -447 8
-29 17 -53 21 -53 4 0 4 14 -1 30 -5 17 -12 102 -15 188 -11 282 -49 465 -140
673 -33 78 -110 217 -125 229 -3 3 -19 23 -35 45 -39 54 -153 183 -190 216
-16 15 -43 39 -58 53 -16 15 -33 23 -39 20 -6 -4 -8 -3 -5 3 9 15 -59 77 -74
68 -8 -5 -10 -4 -5 4 4 6 -8 30 -27 54 -83 104 -117 197 -124 339 -9 172 21
307 106 478 71 142 159 261 294 398 78 79 80 82 43 67 -21 -9 -50 -24 -65 -34
-113 -77 -137 -90 -158 -85 -12 3 -24 12 -27 20 -7 18 15 114 26 114 4 0 8 8
8 19 0 45 112 272 204 412 35 54 172 218 203 242 12 10 41 35 65 57 39 35 95
68 198 113 46 21 105 21 136 1z m-211 -1623 c83 -39 145 -87 145 -111 0 -56
-152 -68 -229 -17 -46 31 -131 133 -131 159 0 9 8 18 18 20 28 7 133 -21 197
-51z m804 45 c27 -32 -68 -148 -150 -186 -81 -37 -199 -22 -199 26 0 50 172
146 300 167 14 2 28 5 31 6 4 0 12 -5 18 -13z m-1799 -153 c0 -94 22 -234 51
-329 21 -67 103 -233 122 -245 5 -4 7 -12 3 -17 -4 -8 -20 -6 -49 4 -23 8 -82
22 -132 30 -277 48 -559 -70 -756 -316 -79 -98 -172 -297 -204 -439 -16 -66
-45 -363 -72 -733 -3 -49 -9 -88 -13 -88 -7 0 -102 556 -145 855 -8 55 -23
156 -35 225 -11 69 -29 186 -40 260 -10 74 -26 180 -35 235 -34 221 -65 445
-65 473 0 34 -29 28 320 66 129 14 273 30 320 36 137 16 605 56 683 59 l47 1
0 -77z m2860 47 c324 -27 631 -61 920 -100 36 -5 71 -9 78 -10 17 0 15 -42
-13 -230 -13 -91 -31 -214 -40 -275 -8 -60 -22 -148 -30 -195 -7 -47 -18 -118
-24 -157 -6 -40 -16 -106 -22 -145 -6 -40 -17 -111 -25 -158 -8 -47 -25 -159
-39 -250 -14 -91 -34 -217 -45 -280 -11 -63 -24 -149 -29 -191 -20 -150 -30
-133 -29 52 0 210 -7 303 -33 468 -28 174 -43 232 -88 344 -117 293 -291 454
-561 517 -68 16 -315 17 -394 2 -57 -11 -83 -9 -60 6 17 11 78 111 102 169 37
86 62 212 69 336 4 74 10 117 17 117 6 0 117 -9 246 -20z m-900 -1191 c-7 -11
-14 -18 -17 -15 -3 3 0 12 7 21 18 21 23 19 10 -6z m-2813 -326 c-3 -10 -5 -4
-5 12 0 17 2 24 5 18 2 -7 2 -21 0 -30z m1551 -702 c67 -10 125 -21 129 -24 4
-4 -2 -15 -13 -25 -19 -18 -25 -18 -174 3 -122 17 -154 24 -152 35 8 35 36 37
210 11z m-1231 3 c-3 -3 -12 -4 -19 -1 -8 3 -5 6 6 6 11 1 17 -2 13 -5z m1140
-90 c40 -8 86 -14 103 -14 33 0 35 -2 20 -31 -7 -12 -22 -19 -43 -20 -18 0
-25 -3 -17 -6 8 -2 21 -7 29 -9 11 -3 11 -8 3 -16 -8 -8 -47 -6 -144 7 -73 9
-138 20 -144 24 -8 4 -6 19 7 49 l19 43 47 -6 c27 -4 80 -13 120 -21z m750 0
c-3 -3 -12 -4 -19 -1 -8 3 -5 6 6 6 11 1 17 -2 13 -5z m424 -92 c-7 -2 -18 1
-23 6 -8 8 -4 9 13 5 13 -4 18 -8 10 -11z m-1354 2 c-3 -3 -12 -4 -19 -1 -8 3
-5 6 6 6 11 1 17 -2 13 -5z m-130 -28 c-9 -13 -19 -51 -23 -86 l-7 -62 -36 7
c-20 4 -39 9 -43 11 -20 13 81 154 110 154 12 0 12 -3 -1 -24z m238 -12 c39
-8 80 -14 92 -14 12 0 24 -4 27 -8 9 -15 -21 -97 -35 -95 -45 4 -255 37 -258
39 -2 2 2 26 9 54 l12 51 42 -6 c22 -4 73 -13 111 -21z m-46 -144 c36 -6 81
-13 99 -16 30 -5 32 -8 32 -44 0 -44 -3 -45 -65 -29 -22 6 -74 14 -115 17
l-75 7 -3 38 c-3 36 -2 37 29 37 18 0 62 -5 98 -10z m1906 -30 c3 -6 -1 -7 -9
-4 -18 7 -21 14 -7 14 6 0 13 -4 16 -10z m560 -170 c3 -6 -1 -7 -9 -4 -18 7
-21 14 -7 14 6 0 13 -4 16 -10z m435 -359 c0 -4 -4 -21 -9 -37 -5 -16 -21 -87
-36 -159 -15 -71 -47 -211 -71 -310 -81 -331 -88 -343 -274 -546 -14 -15 -50
-56 -80 -90 -30 -34 -133 -141 -227 -238 -95 -97 -173 -179 -173 -183 0 -4 -9
-10 -20 -13 -11 -3 -20 -13 -20 -21 0 -8 -4 -14 -10 -14 -5 0 -57 -46 -115
-102 -58 -57 -139 -134 -181 -173 -42 -38 -98 -90 -125 -115 -63 -59 -133
-120 -194 -170 -27 -22 -63 -52 -79 -65 -16 -14 -35 -25 -42 -25 -8 0 -14 -6
-14 -13 0 -8 -11 -19 -24 -25 -14 -6 -43 -27 -64 -47 -22 -19 -44 -35 -50 -35
-6 0 -16 -9 -22 -20 -6 -11 -17 -20 -25 -20 -7 0 -15 -3 -17 -7 -5 -12 -66
-53 -79 -53 -14 0 -73 -32 -77 -42 -2 -5 -10 -8 -17 -8 -7 0 -22 -11 -32 -25
-10 -14 -37 -32 -61 -40 -40 -14 -46 -14 -103 10 -83 35 -309 188 -349 236 -3
3 -10 8 -16 10 -17 6 -170 143 -379 339 -208 196 -662 663 -825 850 -46 52
-86 97 -89 100 -9 8 -94 111 -122 150 -43 58 -65 109 -102 235 -39 135 -50
185 -39 185 4 0 33 -24 66 -52 32 -29 86 -68 119 -88 51 -30 63 -42 79 -84 10
-26 38 -74 62 -105 36 -46 178 -208 217 -246 5 -5 22 -23 37 -38 89 -94 457
-453 567 -553 72 -65 135 -123 141 -129 37 -34 96 -86 144 -125 30 -25 71 -59
90 -77 19 -17 56 -48 83 -68 26 -20 47 -40 47 -45 0 -6 6 -10 13 -10 6 0 26
-12 42 -26 17 -14 46 -38 65 -53 19 -14 41 -31 48 -38 21 -20 178 -121 215
-139 42 -20 74 -14 109 21 14 14 41 32 62 40 20 8 36 20 36 25 0 6 5 10 11 10
6 0 28 18 49 39 22 22 56 52 77 68 20 15 50 40 65 55 16 16 32 28 37 28 4 0
32 24 63 53 30 28 89 84 132 122 42 39 125 116 183 173 58 56 107 102 109 102
4 0 196 193 225 227 9 10 27 27 40 39 22 18 288 296 354 369 89 98 192 232
203 263 8 20 20 60 27 87 7 28 23 85 35 129 17 65 28 86 66 126 84 88 198 278
220 364 6 24 24 37 24 17z m-4176 -97 c3 -8 2 -12 -4 -9 -6 3 -10 10 -10 16 0
14 7 11 14 -7z m223 -86 c-3 -8 -6 -5 -6 6 -1 11 2 17 5 13 3 -3 4 -12 1 -19z
m-27 -218 c0 -5 -2 -10 -4 -10 -3 0 -8 5 -11 10 -3 6 -1 10 4 10 6 0 11 -4 11
-10z m2625 -30 c28 -4 136 -20 240 -34 105 -15 196 -28 203 -31 13 -5 18 -201
4 -222 -4 -6 -50 -32 -102 -58 -52 -25 -103 -50 -113 -55 -9 -6 -52 -24 -95
-41 -42 -16 -91 -36 -108 -44 -55 -25 -275 -92 -374 -114 -108 -24 -267 -44
-279 -36 -5 2 -7 123 -5 267 l4 263 52 12 c29 6 71 14 93 17 22 3 56 10 75 15
19 5 85 23 145 39 115 31 177 36 260 22z m-872 -401 l0 -234 -84 3 c-220 7
-528 102 -823 254 -75 38 -133 74 -130 79 3 5 37 9 77 9 77 0 252 14 387 31
133 17 502 79 530 88 14 5 29 8 34 7 6 -1 9 -99 9 -237z m-978 -115 c211 -108
427 -187 625 -228 69 -15 153 -33 187 -41 34 -8 79 -15 100 -15 59 0 63 -7 65
-104 2 -107 -1 -110 -98 -97 -37 6 -71 8 -75 5 -16 -9 -310 57 -422 96 -201
69 -371 166 -472 270 -36 37 -38 43 -39 104 -1 38 3 66 9 66 6 0 60 -25 120
-56z m2290 -100 c-23 -35 -122 -111 -216 -166 -189 -110 -585 -218 -798 -218
l-62 0 3 103 3 102 131 11 c132 12 174 19 314 56 127 34 331 107 387 137 10 6
61 29 113 52 52 22 104 47 115 55 19 14 20 13 23 -47 2 -43 -2 -68 -13 -85z"/>
<path d="M6215 6880 c-3 -5 -1 -10 4 -10 6 0 11 5 11 10 0 6 -2 10 -4 10 -3 0
-8 -4 -11 -10z"/>
<path d="M5816 6365 c-9 -26 -7 -32 5 -12 6 10 9 21 6 23 -2 3 -7 -2 -11 -11z"/>
<path d="M4590 6146 c0 -2 8 -10 18 -17 15 -13 16 -12 3 4 -13 16 -21 21 -21
13z"/>
<path d="M4221 6024 c0 -11 3 -14 6 -6 3 7 2 16 -1 19 -3 4 -6 -2 -5 -13z"/>
<path d="M6445 6010 c-3 -6 1 -7 9 -4 18 7 21 14 7 14 -6 0 -13 -4 -16 -10z"/>
<path d="M3835 5950 c3 -5 11 -10 16 -10 6 0 7 5 4 10 -3 6 -11 10 -16 10 -6
0 -7 -4 -4 -10z"/>
<path d="M6369 5923 c-13 -16 -12 -17 4 -4 9 7 17 15 17 17 0 8 -8 3 -21 -13z"/>
<path d="M6105 5771 c-3 -5 -1 -12 5 -16 5 -3 10 1 10 9 0 18 -6 21 -15 7z"/>
<path d="M7266 5115 c-9 -26 -7 -32 5 -12 6 10 9 21 6 23 -2 3 -7 -2 -11 -11z"/>
<path d="M7153 5053 c15 -2 37 -2 50 0 12 2 0 4 -28 4 -27 0 -38 -2 -22 -4z"/>
<path d="M7076 5041 c-3 -4 6 -6 19 -3 14 2 25 6 25 8 0 8 -39 4 -44 -5z"/>
<path d="M6990 5020 c0 -5 5 -10 10 -10 6 0 10 5 10 10 0 6 -4 10 -10 10 -5 0
-10 -4 -10 -10z"/>
<path d="M3651 4894 c0 -11 3 -14 6 -6 3 7 2 16 -1 19 -3 4 -6 -2 -5 -13z"/>
<path d="M6861 4687 c8 -8 22 -12 32 -9 22 6 20 7 -16 16 -24 6 -26 5 -16 -7z"/>
<path d="M6938 4673 c12 -2 30 -2 40 0 9 3 -1 5 -23 4 -22 0 -30 -2 -17 -4z"/>
<path d="M7020 4660 c14 -4 41 -8 60 -8 l35 0 -40 9 c-22 4 -49 8 -60 7 -16 0
-15 -2 5 -8z"/>
<path d="M6927 4629 c7 -7 15 -10 18 -7 3 3 -2 9 -12 12 -14 6 -15 5 -6 -5z"/>
<path d="M7178 4633 c7 -3 16 -2 19 1 4 3 -2 6 -13 5 -11 0 -14 -3 -6 -6z"/>
<path d="M6975 4590 c3 -5 8 -10 11 -10 2 0 4 5 4 10 0 6 -5 10 -11 10 -5 0
-7 -4 -4 -10z"/>
<path d="M7000 4566 c0 -3 9 -10 20 -16 11 -6 20 -8 20 -6 0 3 -9 10 -20 16
-11 6 -20 8 -20 6z"/>
<path d="M4455 3830 c17 -4 44 -8 60 -8 25 0 24 2 -10 9 -51 10 -92 10 -50 -1z"/>
<path d="M3895 7315 c-335 -30 -408 -37 -595 -57 -107 -11 -198 -23 -202 -27
-8 -7 12 -180 41 -356 22 -133 60 -371 67 -425 3 -18 6 -36 8 -38 2 -1 22 30
44 71 91 166 211 298 357 393 142 93 279 139 447 150 79 6 98 10 94 21 -16 40
-37 127 -49 198 -16 95 3 89 -212 70z"/>
<path d="M6967 7333 c-4 -3 -7 -26 -7 -49 0 -47 -21 -145 -45 -213 -8 -24 -15
-47 -15 -51 0 -4 54 -10 120 -13 313 -16 566 -179 718 -465 24 -46 47 -80 50
-77 3 3 8 18 9 33 2 15 12 81 23 147 11 66 31 201 45 300 14 99 30 204 36 234
6 29 7 57 2 61 -11 11 -173 30 -653 75 -291 28 -275 27 -283 18z"/>
<path d="M4828 5113 c7 -3 16 -2 19 1 4 3 -2 6 -13 5 -11 0 -14 -3 -6 -6z"/>
<path d="M4781 5014 c0 -11 3 -14 6 -6 3 7 2 16 -1 19 -3 4 -6 -2 -5 -13z"/>
</g>
</svg>
